PathFileType	4	(X/Y/Z)	path1_18_0-549.trc
DataRate	CameraRate	NumFrames	NumMarkers	Units	OrigDataRate	OrigDataStartFrame	OrigNumFrames
30	30	9	22	m	30	137	549
Frame#	Time	Hip			RHip			RKnee			RAnkle			RBigToe			RSmallToe			RHeel			LHip			LKnee			LAnkle			LBigToe			LSmallToe			LHeel			Neck			Head			Nose			RShoulder			RElbow			RWrist			LShoulder			LElbow			LWrist		
		X1	Y1	Z1	X2	Y2	Z2	X3	Y3	Z3	X4	Y4	Z4	X5	Y5	Z5	X6	Y6	Z6	X7	Y7	Z7	X8	Y8	Z8	X9	Y9	Z9	X10	Y10	Z10	X11	Y11	Z11	X12	Y12	Z12	X13	Y13	Z13	X14	Y14	Z14	X15	Y15	Z15	X16	Y16	Z16	X17	Y17	Z17	X18	Y18	Z18	X19	Y19	Z19	X20	Y20	Z20	X21	Y21	Z21	X22	Y22	Z22
138	4.6	2.504356617431081	0.829131828560976	0.5970119031122946	2.5090827565272225	0.7887862787946185	0.5196451972430064	2.4911164428079524	0.458599949848418	0.5211026692958898	2.5611517884354353	0.09460721728742562	0.5683019625830066	2.364509124236705	0.016320779541734654	0.542986411416065	2.396710884447868	0.02125149815391186	0.48054016113751274	2.612049879195614	0.030485218238070672	0.5700696075194343	2.4973872039461615	0.7858608053041612	0.6773749427716272	2.5078392297387664	0.43111012256433695	0.6531153736908852	2.53957586626301	0.11218510432452133	0.6694620308567113	2.3833018874322693	0.019882642135176043	0.6780705702915378	2.4149437304625807	0.024097304484451756	0.7340512463057418	2.5855389575147574	0.0395905635715349	0.671004394838789	2.469135073678242	1.4671049729283256	0.619486873002682	2.438115280054889	1.7088406329145776	0.550029175313371	2.3319468046589913	1.6032491344047226	0.5900746122692476	2.5299801314166332	1.3635239686448752	0.4434713308810341	2.5181116317695853	1.0770559639775827	0.390627888762646	2.5050238361288693	0.8419891297809913	0.3945689274719852	2.4663859141195568	1.3406892925027631	0.7856664903657229	2.501206812884379	1.064414611939882	0.8116403162001227	2.4938492589234293	0.8295835203518216	0.8143145233706697
139	4.633333333333334	2.5043136324351813	0.8293143046286083	0.5970657764526588	2.508947813419866	0.7887953718757221	0.5195779357742353	2.4925206760010923	0.4579293408893235	0.5227863796642706	2.561285476841766	0.09439392733272449	0.568352449185213	2.364374814573452	0.016193326148750773	0.542888456278606	2.3968509711652577	0.02108407928198181	0.4803991819894837	2.6121797753588156	0.030232718866846413	0.5699524248000145	2.497571339949811	0.7859135180959121	0.6771198736876236	2.5078517814563974	0.4311884594124709	0.6530352464104744	2.5404859782764424	0.11154647544683417	0.6694197370909325	2.3837386855487237	0.019585500876047168	0.677998636658863	2.4152679606727485	0.023914339829325344	0.7337020168504961	2.586248877949799	0.03930027384775905	0.67098070628316	2.469184921842432	1.4671351626071474	0.6195244566997441	2.4382389125061583	1.7087933093910248	0.5501093152260014	2.3319368364731563	1.6032641550233628	0.5896117885753914	2.5299012291177565	1.363559268834558	0.4435296318426408	2.518005081965181	1.0771006385786313	0.3907180998544689	2.504642523041688	0.8420710087059061	0.3944605703773445	2.466301072545758	1.340757595104935	0.786143271906521	2.5009719482406543	1.0645549697293282	0.8116251224299804	2.4937635066980293	0.8297622719085019	0.814351227349657
140	4.666666666666667	2.504305695058299	0.8295414586079503	0.5970947510153883	2.5087910273685625	0.7888510443211505	0.5194645178791631	2.4951618599954415	0.45663175343349804	0.5260962447742853	2.561307103074178	0.09436622853909386	0.5683189063004127	2.364451089046818	0.016190247985823136	0.5428899167920704	2.3969588251728826	0.021019895363878587	0.48023938728417637	2.6121492391840335	0.030196704281965504	0.5697493620811065	2.4977456994314777	0.7860366526229425	0.676881896744963	2.5078252687782787	0.4313386795368905	0.652873087929066	2.5417060816366126	0.11059624177368994	0.6692914293225	2.384126442550208	0.019235340341412374	0.6779666604559575	2.415808834182031	0.023558729128934638	0.7332193550180397	2.586817117809829	0.039178336301208164	0.6708574472785114	2.4692794593245635	1.4672059121266516	0.6198246430183432	2.4384495078909594	1.7086730463343773	0.5502502797570766	2.331966515386018	1.6032190244314348	0.5890320244145689	2.529811501752646	1.363453622571644	0.4434813979896835	2.5179048097169403	1.077046972112854	0.39078665770446863	2.5042150085121566	0.8421584529343632	0.3942960335725433	2.4662300602286282	1.34078300493335	0.786585025451279	2.500774208330352	1.0647720975268686	0.8116048478414724	2.4936745985996853	0.8300279993555841	0.814385172659175
141	4.7	2.5043520379519544	0.8297913515764049	0.5971378226495107	2.508648073575384	0.7889808055156028	0.519293872980548	2.4992466640150908	0.45465666999155835	0.5312748957393855	2.561273738272639	0.09449876696928278	0.5682624632852485	2.36477519999775	0.016295167355466735	0.5430112058426306	2.39697772664048	0.021077057262125717	0.4800731917348854	2.6119719138891315	0.03038911914100398	0.5694787348169646	2.497871026842054	0.7862232438479111	0.6767264496478461	2.50768281554134	0.4316123683165814	0.6526086191454642	2.5430467583990755	0.10936568260921173	0.6690163867564782	2.3843860309129408	0.018917129506434375	0.6779907629658297	2.416391570406029	0.02314985593387828	0.7326917424927517	2.5871688199127227	0.039148636481744034	0.6706369596332674	2.4694323263790623	1.467313636295661	0.6202398430324505	2.4387333963431406	1.7085165199319434	0.5503101780153801	2.3320747945075637	1.6031602793855946	0.5884822395650842	2.5297289680102444	1.363280606258214	0.44336948173192464	2.517835178166802	1.0769133236944317	0.39083294206540853	2.503818009799495	0.8422488615928856	0.3941151834898585	2.4662519977961668	1.3407218463626887	0.7869398506039733	2.5006206311697663	1.0649595274001755	0.811589263792761	2.4936144940670713	0.8302934606744171	0.8144154884437359
142	4.733333333333333	2.5044422198205796	0.830033679602522	0.5972409157134922	2.508552723659898	0.7891812161696682	0.5190973764265252	2.504232734865271	0.45230768568762664	0.5376422507661179	2.561242434943072	0.09475253395970819	0.5682468497506564	2.3654150533141474	0.016628015633842017	0.543478180779479	2.3969264488795283	0.021249463195845485	0.47990512554209186	2.61169057052638	0.03079131893466829	0.5691417607088294	2.497912723350078	0.7864314993664858	0.6767052866124301	2.5074326213521414	0.4320314160915493	0.6523115446970488	2.544146402650805	0.10817496126694136	0.6686785822018689	2.384473597548412	0.018776332157810074	0.6781111620189235	2.416861254212259	0.022836160920761697	0.7322363666965701	2.5872691023476775	0.03915562086546372	0.6703745744050278	2.469630356308448	1.4674483330058485	0.6206304261912112	2.439045057496189	1.708346141373749	0.5502521166144386	2.332287150219437	1.6030914735700372	0.5881402082782117	2.529656488040967	1.3631209844719634	0.4432426571523984	2.517794250341554	1.0767495940489744	0.39085574898939557	2.503520401466847	0.8424176444669269	0.3939553702730004	2.46634940427037	1.3405482053381057	0.7872234739254222	2.500534151986982	1.0650068662911196	0.8115858739713595	2.493570426338795	0.830429669671423	0.814419107618634
143	4.766666666666667	2.5045597086504343	0.8302521812735287	0.5974134291090168	2.5085509754654365	0.7894249558614127	0.5189523400189321	2.5084916465932183	0.45034556186993097	0.5431696444383349	2.5612065897472105	0.09507811698181579	0.5682477098005935	2.366353314132938	0.017342536018796793	0.5445234538032718	2.3968667560364367	0.021501317380183887	0.47975883647029505	2.611309156751562	0.03134560191196311	0.5687529136809593	2.4978890032456817	0.7866153701861699	0.6768457459732119	2.5071905744555334	0.4325605998451745	0.6521211544646254	2.5445194829585662	0.10761599194611317	0.6685281790889959	2.3844363851721355	0.018923709594303458	0.6783988225782067	2.4171531614797837	0.02271381305759466	0.7319830889645899	2.587071219722859	0.03924312450181249	0.6701922590875621	2.469822512472832	1.4676294026961882	0.6209623180219581	2.439285774206913	1.7081757215194773	0.5500791127622092	2.332579814600969	1.6029716131630505	0.5880157679824497	2.5295593102215355	1.3630516768450955	0.44312401538794816	2.517757507774193	1.076627752431906	0.39084193747426166	2.503360318378144	0.8427775520903671	0.39381852330219136	2.4665085919115755	1.3402939018196875	0.7874915639651285	2.50053056085067	1.0648687265598995	0.8115973422102177	2.4934931352058682	0.8303318041399413	0.8143612754355785
144	4.8	2.504676554337682	0.8304616454483713	0.5976351880179335	2.5086632975550742	0.7896874732404262	0.518943787358788	2.509997082728223	0.4496822133990359	0.5453252439996606	2.5611253491555117	0.09537794633368586	0.5681787561633908	2.3673440597347204	0.018337905175455336	0.5460110358309145	2.396819306882602	0.02178524274426052	0.4796597951539111	2.6108371281254708	0.03194272633468596	0.5683692121405475	2.4978427125946485	0.7867688048412543	0.6771476263061361	2.5070847914739742	0.43314942444302806	0.6521903311083941	2.5439615972933947	0.1080384620666913	0.6687312052462927	2.3843664942420872	0.01935370007167168	0.6788949114307742	2.4172495036561106	0.022795816608630993	0.732020562613559	2.586584416726876	0.039468658225452674	0.6701842252837289	2.469959379048831	1.4678901729115055	0.6212693999126147	2.4393582651011796	1.708049412871467	0.5497969710882568	2.332880549678301	1.6027562237242945	0.5879766984869143	2.529395969826812	1.3631136687598489	0.44303672347465034	2.5176928472229885	1.076619949167199	0.3907902876821322	2.503334062712151	0.843376099650111	0.3936840022308634	2.466807589434905	1.340044461841235	0.7877929628727515	2.500587765920153	1.0645721746046546	0.8116300173377045	2.4933378033041778	0.8300024977644535	0.8142253722302765
145	4.833333333333333	2.5047578186965866	0.8306783000629074	0.5978834515005613	2.5088539869766375	0.7899484106244172	0.5191109427898924	2.5078606555364695	0.45071833287434393	0.5429731220071589	2.5609570107949744	0.09556041122886264	0.5679636185250229	2.367988345131703	0.019227931818304823	0.5474111870624296	2.396736154282948	0.022056169525161724	0.479626754199339	2.6103555674867547	0.03244549750489864	0.5680813094391657	2.497779899128161	0.7869172399739172	0.6775618857096832	2.5071485789553307	0.43374391761474995	0.6526028194077604	2.542820766279723	0.10915164892263796	0.669166571363545	2.3842953876978803	0.019949996978703012	0.6795421820575861	2.417118616975967	0.023032491144880176	0.732338787829454	2.5859422363948332	0.0397880448042713	0.6703294170547757	2.4700282013737693	1.4682169135851504	0.62156159948973	2.4392731240137127	1.7080329389487265	0.549541889188463	2.333114678167493	1.6024615831568205	0.5879254264896253	2.529167536543625	1.363291687006946	0.44303550938417124	2.5175791175134683	1.0767608194795415	0.39075450367650144	2.5034051586189237	0.8441270739507147	0.3935477951778557	2.467304072396834	1.3398918428551003	0.788120925259257	2.5006477729395384	1.0641953068070802	0.8116922319266613	2.493096269929605	0.8295670031741494	0.8140295064340892
146	4.866666666666666	2.504783896111686	0.8308863176282267	0.5981443352917366	2.509042820320105	0.79017701184303	0.5194253403264639	2.5031066113507063	0.4529967884394982	0.5373688212487857	2.5606833196297707	0.09561460060175181	0.5676124925028535	2.3680258908140446	0.019670289848906387	0.5482399330548756	2.396557696314475	0.02227287330625918	0.4796920972604006	2.610007393825902	0.032743998767523395	0.5679882586502095	2.497670859849686	0.7870685883142975	0.6780211645157932	2.5073270817670616	0.4342624539643451	0.6533465001710252	2.5416606706186915	0.11036888665941649	0.6695922171773463	2.3841831096530415	0.020528337686603493	0.6801738236406697	2.416749111983729	0.023346776063144944	0.7328357279631016	2.585361807833829	0.040062477098070925	0.6705229452806446	2.470024085326963	1.468532299903458	0.6217987691018703	2.439156116366882	1.7081627769955976	0.5495783406443596	2.333235938184945	1.602194820485093	0.5878894308486474	2.5289241490018037	1.3635354133797333	0.4431893783750531	2.517399429146217	1.0770323981062655	0.390828152115767	2.5034981325652716	0.8448575402043581	0.3934320722678307	2.467894181734266	1.3398908641345568	0.788417706446811	2.500632273225099	1.063836148475555	0.8117712265306265	2.492787526257828	0.8291965391812306	0.8138078016204526
